<?xml version="1.0" encoding="utf-8"?>
<!-- Generator: Adobe Illustrator 20.1.0, SVG Export Plug-In . SVG Version: 6.00 Build 0)  -->
<svg version="1.1" id="Layer_1" xmlns="http://www.w3.org/2000/svg" xmlns:xlink="http://www.w3.org/1999/xlink" x="0px" y="0px"
	 viewBox="0 0 437.9 132.3" style="enable-background:new 0 0 437.9 132.3;" xml:space="preserve">
<style type="text/css">
	.st0{fill:#0084C6;}
	.st1{fill:#C70000;}
	.st2{fill:#212121;}
</style>
<g>
	<polygon class="st0" points="63.6,129.5 42.4,108.3 84.9,65.8 42.4,23.4 63.6,2.2 127.3,65.8 	"/>
</g>
<g>
	<polygon class="st1" points="21.2,129.5 0,108.3 42.4,65.8 0,23.4 21.2,2.2 84.9,65.8 	"/>
</g>
<g>
	<g>
		<g>
			
				<rect x="117.2" y="107.8" transform="matrix(0.7071 -0.7071 0.7071 0.7071 -41.3785 118.7733)" class="st2" width="11" height="3"/>
		</g>
		<g>
			<polygon class="st2" points="105.4,128.8 96.5,119.9 98.6,117.8 105.4,124.5 112.1,117.8 114.2,119.9 			"/>
		</g>
		<g>
			<path class="st2" d="M92.7,116.1L75.8,99.2l2.1-2.1L94.8,114L92.7,116.1z M72,95.4L55.1,78.5l2.1-2.1l16.9,16.9L72,95.4z"/>
		</g>
		<g>
			<polygon class="st2" points="51.3,74.7 42.4,65.8 51.3,57 53.4,59.1 46.7,65.8 53.4,72.6 			"/>
		</g>
		<g>
			<path class="st2" d="M57.2,55.3l-2.1-2.1L72,36.3l2.1,2.1L57.2,55.3z M77.9,34.6l-2.1-2.1l16.9-16.9l2.1,2.1L77.9,34.6z"/>
		</g>
		<g>
			<polygon class="st2" points="112.1,13.9 105.4,7.2 98.6,13.9 96.5,11.8 105.4,2.9 114.2,11.8 			"/>
		</g>
		<g>
			<rect x="121.2" y="16.9" transform="matrix(0.7071 -0.7071 0.7071 0.7071 20.1214 93.2991)" class="st2" width="3" height="11"/>
		</g>
	</g>
</g>
<g>
	<g>
		<g>
			<polygon class="st2" points="154.5,13.9 147.8,7.2 141.1,13.9 138.9,11.8 147.8,2.9 156.6,11.8 			"/>
		</g>
		<g>
			<polygon class="st2" points="162.3,35.1 160.2,33 166.9,26.2 160.2,19.5 162.3,17.4 171.1,26.2 			"/>
		</g>
		<g>
			
				<rect x="137.5" y="44.5" transform="matrix(0.7071 -0.7071 0.7071 0.7071 11.1378 118.9873)" class="st2" width="23.4" height="3"/>
		</g>
		<g>
			<polygon class="st2" points="136.1,74.7 127.3,65.8 136.1,57 138.2,59.1 131.5,65.8 138.2,72.6 			"/>
		</g>
		<g>
			
				<rect x="147.7" y="74" transform="matrix(0.7071 -0.7071 0.7071 0.7071 -16.8621 130.5856)" class="st2" width="3" height="23.4"/>
		</g>
		<g>
			<polygon class="st2" points="162.3,114.3 160.2,112.2 166.9,105.4 160.2,98.7 162.3,96.6 171.1,105.4 			"/>
		</g>
		<g>
			<polygon class="st2" points="147.8,128.8 138.9,119.9 141.1,117.8 147.8,124.5 154.5,117.8 156.6,119.9 			"/>
		</g>
		<g>
			<path class="st2" d="M135.1,116.1l-16.9-16.9l2.1-2.1l16.9,16.9L135.1,116.1z M114.4,95.4L97.5,78.5l2.1-2.1l16.9,16.9
				L114.4,95.4z"/>
		</g>
		<g>
			<polygon class="st2" points="93.7,74.7 84.9,65.8 93.7,57 95.8,59.1 89.1,65.8 95.8,72.6 			"/>
		</g>
		<g>
			<path class="st2" d="M99.6,55.3l-2.1-2.1l16.9-16.9l2.1,2.1L99.6,55.3z M120.4,34.6l-2.1-2.1l16.9-16.9l2.1,2.1L120.4,34.6z"/>
		</g>
	</g>
</g>
<g>
	<g>
		<path class="st2" d="M189.5,27.2V4.9l-3.3-1.3V0.7h18.2v2.9l-3.5,1.2v21.8c0,6.5,2.3,8.6,7.1,8.6c4.5,0,7-2.2,7-8.6V4.8l-3.5-1.2
			V0.7h11.4v2.9l-3.1,1.3v21.6c0,7.9-3.9,13.9-14.1,13.9C194.6,40.3,189.5,35.3,189.5,27.2z"/>
		<path class="st2" d="M225.1,38.3l-0.5-9.8h4.6l2.1,7.2c1.3,0.6,3.2,1,5.2,1c4.5,0,6.6-1.9,6.6-5.2c0-3.1-2.2-4.5-6.9-6.4l-2.1-0.9
			c-6.1-2.5-9.2-5.9-9.2-12.1c0-6.9,4.2-12.1,14.3-12.1c5.3,0,8.4,0.8,10.5,1.6l0.5,9.4h-4.4l-1.9-6.8c-1-0.4-2.6-0.7-4.7-0.7
			c-3.7,0-5.6,1.9-5.6,4.9c0,2.7,1.7,4,5.9,5.7l2.2,0.9c6.8,2.6,10.8,4.9,10.8,12.4c0,8.3-5.8,12.9-15.4,12.9
			C232.6,40.2,227.9,39.5,225.1,38.3z"/>
		<path class="st2" d="M189.6,81.9V60.8l-3.2-1.3v-2.3l11.7-1.7l1.2,0.1v3.5h0.3c2.5-2.3,5.3-3.7,9.2-3.7c3.4,0,5.5,1,6.6,3.8h0.2
			c2.6-2.3,5.6-3.8,9.4-3.8c4.9,0,7.5,2.5,7.5,7.9v18.7l3.1,1.3v2.3h-15.2v-2.3l2.4-1.3V64.7c0-3-1.3-4.2-3.5-4.2
			c-1.2,0-2.5,0.4-3.5,0.9v20.5l2.4,1.3v2.3h-14.3v-2.3l2.5-1.3V64.7c0-3-1.1-4.2-3.5-4.2c-1.4,0-2.5,0.4-3.6,0.9v20.4l2.4,1.3v2.3
			h-15.3v-2.3L189.6,81.9z"/>
		<path class="st2" d="M249,55.5l1,0.1v26.3l3,1.3v2.3h-16v-2.3l3.1-1.3V60.8l-3.3-1.3v-2.3L249,55.5z M250.1,48.5
			c0,2.9-2.4,5-5.2,5c-2.9,0-5.2-2.2-5.2-5c0-2.9,2.3-5.1,5.2-5.1C247.7,43.4,250.1,45.6,250.1,48.5z"/>
		<path class="st2" d="M273.7,56.4v-8.1l-3.2-1.1v-2.4l11.9-1.7l1.1,0.2V81l3.3,1.6v2.4L275,86.2l-0.9-0.1v-3.1h-0.3
			c-1.7,1.7-4.1,3.3-7.8,3.3c-6.4,0-11.1-4.9-11.1-14.9c0-10.6,5.4-16,13.7-16C271,55.4,272.8,55.9,273.7,56.4z M273.7,80.6v-21
			c-0.8-0.5-1.7-0.9-3.2-0.9c-3.2,0-5.2,3.3-5.2,11.9c0,7.7,1.9,10.7,5.7,10.7C272.1,81.4,273.1,81.1,273.7,80.6z"/>
		<path class="st2" d="M287.5,60v-2.5l4.2-1.5v-5.3l9.8-1.6V56h6.5v4h-6.5v17.4c0,3,0.9,4.3,4.1,4.3c1,0,2.1-0.1,2.8-0.2v2.8
			c-1.7,1-4.6,1.9-7.9,1.9c-5.9,0-8.7-2.6-8.7-9V60H287.5z"/>
		<path class="st2" d="M320.3,71.6c0.3,6.1,2.6,9,9.1,9c3.1,0,5.3-0.6,7.4-1.7v2.7c-1.6,2.2-5.7,4.9-11.4,4.9
			c-10,0-15.2-6-15.2-15.7c0-9.4,5.6-15.3,14.7-15.3c8.5,0,12.9,4.3,12.9,15.5v0.8H320.3z M320.1,68.7l8.4-0.5
			c0-7.6-1.3-9.8-3.9-9.8C321.9,58.4,320.1,61.4,320.1,68.7z"/>
		<path class="st2" d="M351.7,55.5l1,0.1v6.7h0.3c1.6-4.9,4-7.1,7.4-7.1c0.5,0,1.1,0.1,1.5,0.2v8.9c-0.5-0.2-1.5-0.2-2.4-0.2
			c-2.7,0-4.7,0.3-6.4,1v16.9l4,1.3v2.3H340v-2.3l3.1-1.3V60.8l-3.2-1.3v-2.3L351.7,55.5z"/>
		<path class="st2" d="M366.8,81.9V60.8l-3.2-1.3v-2.3l11.7-1.7l1.2,0.1v3.5h0.3c2.5-2.3,5.3-3.7,9.2-3.7c3.4,0,5.5,1,6.6,3.8h0.2
			c2.6-2.3,5.6-3.8,9.4-3.8c4.9,0,7.5,2.5,7.5,7.9v18.7l3.1,1.3v2.3h-15.2v-2.3l2.4-1.3V64.7c0-3-1.3-4.2-3.5-4.2
			c-1.2,0-2.5,0.4-3.5,0.9v20.5l2.4,1.3v2.3h-14.3v-2.3l2.5-1.3V64.7c0-3-1.1-4.2-3.5-4.2c-1.4,0-2.5,0.4-3.6,0.9v20.4l2.4,1.3v2.3
			h-15.3v-2.3L366.8,81.9z"/>
		<path class="st2" d="M437.9,76c0,6.6-3.9,10.3-12.7,10.3c-3.5,0-7.2-0.5-10.2-1.6l-0.3-7.7h3.6l2.3,5.1c1.2,0.6,2.8,1,4.6,1
			c3.3,0,4.9-1.5,4.9-3.7c0-1.9-1-3-4-3.7l-2-0.5c-6.3-1.6-9.2-4.6-9.2-10.1c0-5.8,3.8-9.9,12.2-9.9c3.5,0,6.8,0.4,9.1,1.2v7.2h-3.6
			l-1.6-4.6c-0.9-0.4-2.1-0.6-3.7-0.6c-2.9,0-4.4,1.3-4.4,3.5c0,1.9,1,2.9,4.3,3.8l2,0.5C435.3,67.7,437.9,70.4,437.9,76z"/>
		<path class="st2" d="M194.2,101.8l-2.3,7.4h-4.5v-9.1c3.1-1.2,7.1-2,11.4-2c8.6,0,12.6,3.8,12.6,9.6c0,5.9-4.4,9.9-13.1,14.3
			l-4.7,2.4v0.2h18.2l-0.5,7h-24.5v-6l7.5-5.9c5.1-4.2,6.6-8,6.6-11.7c0-3.8-1.1-6.5-4.2-6.5C195.7,101.4,194.9,101.6,194.2,101.8z"
			/>
		<path class="st2" d="M214.8,115.3c0-11.9,7.8-17.2,16-17.2c8.5,0,15.5,5.4,15.5,16.9c0,11.8-7.7,17.3-15.9,17.3
			C221.7,132.2,214.8,126.7,214.8,115.3z M235.2,115.4c0-10.8-1.3-13.9-4.7-13.9c-3.3,0-4.7,3.2-4.7,13.3c0,10.6,1.2,13.9,4.8,13.9
			C233.8,128.7,235.2,125.6,235.2,115.4z"/>
		<path class="st2" d="M249.3,128.8l5.3-1.6V106l-5.3,0.9v-3.2l11-5.3h4.2v28.9l5.2,1.6v2.8h-20.4V128.8z"/>
		<path class="st2" d="M285.9,132.3c-9.5,0-13.9-4.5-13.9-10c0-4.4,3.1-7.8,8.1-9.4c-4.5-3-7-6.3-7-10.7c0-6.3,4.7-10.2,13.2-10.2
			c9,0,12.7,4.2,12.7,9.2c0,4.4-3.4,7.2-7.6,8.4l0.3,0.2c5.4,3.1,8.6,5.8,8.6,11.9C300.4,128.2,295.4,132.3,285.9,132.3z
			 M286.5,128.9c3.7,0,5.6-2.1,5.6-5.2c0-3.2-2-5-5.5-7l-3.2-1.9c-2.1,1.8-3.1,4.2-3.1,7.2C280.2,126.2,282.3,128.9,286.5,128.9z
			 M288.2,107.8c1.9-1.6,3-3.7,3-6.5c0-4.1-2.2-5.8-5.1-5.8s-4.7,1.5-4.7,4.6c0,3.1,1.8,4.8,5.3,6.7L288.2,107.8z"/>
	</g>
</g>
</svg>
